<mxfile host="app.diagrams.net" agent="Mozilla/5.0 (X11; Linux x86_64) AppleWebKit/537.36 (KHTML, like Gecko) Chrome/118.0.0.0 Safari/537.36" version="24.7.6">
  <diagram id="3228e29e-7158-1315-38df-8450db1d8a1d" name="Page-1">
    <mxGraphModel dx="1434" dy="797" grid="1" gridSize="10" guides="1" tooltips="1" connect="1" arrows="1" fold="1" page="1" pageScale="1" pageWidth="1169" pageHeight="827" background="none" math="0" shadow="0">
      <root>
        <mxCell id="0" />
        <mxCell id="1" parent="0" />
        <mxCell id="21566" value="&lt;span style=&quot;color: rgba(0, 0, 0, 0); font-family: monospace; font-size: 0px; text-align: start; text-wrap: nowrap;&quot;&gt;%3CmxGraphModel%3E%3Croot%3E%3CmxCell%20id%3D%220%22%2F%3E%3CmxCell%20id%3D%221%22%20parent%3D%220%22%2F%3E%3CmxCell%20id%3D%222%22%20value%3D%22Radius%202%22%20style%3D%22text%3Bhtml%3D1%3BstrokeColor%3Dnone%3BfillColor%3Dnone%3Balign%3Dcenter%3BverticalAlign%3Dmiddle%3BwhiteSpace%3Dwrap%3Brounded%3D0%3Bshadow%3D0%3BlabelBackgroundColor%3Dnone%3BfontFamily%3DHelvetica%3BfontSize%3D14%3BfontColor%3D%232F5B7C%3B%22%20vertex%3D%221%22%20parent%3D%221%22%3E%3CmxGeometry%20x%3D%22519.2%22%20y%3D%22465.62%22%20width%3D%2270.8%22%20height%3D%2220%22%20as%3D%22geometry%22%2F%3E%3C%2FmxCell%3E%3C%2Froot%3E%3C%2FmxGraphModel%3E&lt;/span&gt;" style="ellipse;whiteSpace=wrap;html=1;rounded=1;shadow=0;labelBackgroundColor=none;strokeColor=#12aab5;strokeWidth=3;fillColor=#12aab5;fontFamily=Helvetica;fontSize=14;fontColor=#2F5B7C;align=center;opacity=30;rotation=75;" parent="1" vertex="1">
          <mxGeometry x="384.07" y="374.12" width="386.29" height="227.12" as="geometry" />
        </mxCell>
        <mxCell id="21567" value="" style="ellipse;whiteSpace=wrap;html=1;rounded=1;shadow=0;labelBackgroundColor=none;strokeColor=#1699d3;strokeWidth=3;fillColor=#1699d3;fontFamily=Helvetica;fontSize=14;fontColor=#2F5B7C;align=center;opacity=30;rotation=74;" parent="1" vertex="1">
          <mxGeometry x="458.14" y="485.62" width="242.98" height="152.5" as="geometry" />
        </mxCell>
        <mxCell id="21568" value="" style="ellipse;whiteSpace=wrap;html=1;rounded=1;shadow=0;labelBackgroundColor=none;strokeColor=#F08705;strokeWidth=3;fillColor=#F08705;fontFamily=Helvetica;fontSize=14;fontColor=#2F5B7C;align=center;opacity=30;rotation=-105;" parent="1" vertex="1">
          <mxGeometry x="423.61" y="441.91" width="302.59" height="181.25" as="geometry" />
        </mxCell>
        <mxCell id="21569" value="" style="ellipse;whiteSpace=wrap;html=1;rounded=1;shadow=0;labelBackgroundColor=none;strokeColor=#736ca8;strokeWidth=3;fillColor=#736ca8;fontFamily=Helvetica;fontSize=14;fontColor=#2F5B7C;align=center;opacity=30;rotation=-45;" parent="1" vertex="1">
          <mxGeometry x="512.24" y="470" width="258.12" height="190" as="geometry" />
        </mxCell>
        <mxCell id="21570" value="Radius 2" style="text;html=1;strokeColor=none;fillColor=none;align=center;verticalAlign=middle;whiteSpace=wrap;rounded=0;shadow=0;labelBackgroundColor=none;fontFamily=Helvetica;fontSize=14;fontColor=#2F5B7C;fontStyle=1" parent="1" vertex="1">
          <mxGeometry x="519.2" y="465.62" width="70.8" height="20" as="geometry" />
        </mxCell>
        <mxCell id="21571" value="Comparison of identified DA features for PD data" style="text;html=1;strokeColor=none;fillColor=none;align=center;verticalAlign=middle;whiteSpace=wrap;rounded=0;shadow=0;labelBackgroundColor=none;fontFamily=Helvetica;fontSize=14;fontColor=#2F5B7C;fontStyle=1" parent="1" vertex="1">
          <mxGeometry x="441.12" y="240" width="350" height="20" as="geometry" />
        </mxCell>
        <mxCell id="21573" value="ANCOM-BC" style="text;html=1;strokeColor=none;fillColor=none;align=center;verticalAlign=middle;whiteSpace=wrap;rounded=0;shadow=0;labelBackgroundColor=none;fontFamily=Helvetica;fontSize=14;fontColor=#2F5B7C;fontStyle=1" parent="1" vertex="1">
          <mxGeometry x="710" y="441.91" width="90" height="20" as="geometry" />
        </mxCell>
        <mxCell id="21575" value="52&lt;br&gt;21.6%" style="text;html=1;strokeColor=none;fillColor=none;align=center;verticalAlign=middle;whiteSpace=wrap;rounded=0;shadow=0;labelBackgroundColor=none;fontFamily=Helvetica;fontSize=14;fontColor=#2F5B7C;fontStyle=1" parent="1" vertex="1">
          <mxGeometry x="490" y="420" width="40" height="20" as="geometry" />
        </mxCell>
        <mxCell id="21579" value="80&lt;br&gt;33.2%" style="text;html=1;strokeColor=none;fillColor=none;align=center;verticalAlign=middle;whiteSpace=wrap;rounded=0;shadow=0;labelBackgroundColor=none;fontFamily=Helvetica;fontSize=14;fontColor=#2F5B7C;fontStyle=1" parent="1" vertex="1">
          <mxGeometry x="510" y="500" width="40" height="20" as="geometry" />
        </mxCell>
        <mxCell id="21580" value="71&lt;br&gt;29.5%" style="text;html=1;strokeColor=none;fillColor=none;align=center;verticalAlign=middle;whiteSpace=wrap;rounded=0;shadow=0;labelBackgroundColor=none;fontFamily=Helvetica;fontSize=14;fontColor=#2F5B7C;fontStyle=1" parent="1" vertex="1">
          <mxGeometry x="570" y="580" width="40" height="20" as="geometry" />
        </mxCell>
        <mxCell id="21585" value="10&lt;br&gt;4.1%" style="text;html=1;strokeColor=none;fillColor=none;align=center;verticalAlign=middle;whiteSpace=wrap;rounded=0;shadow=0;labelBackgroundColor=none;fontFamily=Helvetica;fontSize=14;fontColor=#2F5B7C;fontStyle=1" parent="1" vertex="1">
          <mxGeometry x="710" y="540" width="40" height="20" as="geometry" />
        </mxCell>
        <mxCell id="21586" value="17&lt;br style=&quot;font-size: 10px;&quot;&gt;7.1%" style="text;html=1;strokeColor=none;fillColor=none;align=center;verticalAlign=middle;whiteSpace=wrap;rounded=0;shadow=0;labelBackgroundColor=none;fontFamily=Helvetica;fontSize=10;fontColor=#2F5B7C;fontStyle=1" parent="1" vertex="1">
          <mxGeometry x="636.3" y="470" width="10" height="10" as="geometry" />
        </mxCell>
        <mxCell id="21588" value="FlashWeave" style="text;html=1;strokeColor=none;fillColor=none;align=center;verticalAlign=middle;whiteSpace=wrap;rounded=0;shadow=0;labelBackgroundColor=none;fontFamily=Helvetica;fontSize=14;fontColor=#2F5B7C;fontStyle=1" parent="1" vertex="1">
          <mxGeometry x="620" y="310" width="90" height="20" as="geometry" />
        </mxCell>
        <mxCell id="21589" value="8&lt;br&gt;3.3%" style="text;html=1;strokeColor=none;fillColor=none;align=center;verticalAlign=middle;whiteSpace=wrap;rounded=0;shadow=0;labelBackgroundColor=none;fontFamily=Helvetica;fontSize=14;fontColor=#2F5B7C;fontStyle=1" parent="1" vertex="1">
          <mxGeometry x="470" y="360" width="40" height="20" as="geometry" />
        </mxCell>
        <mxCell id="21591" value="3&lt;br&gt;1.2%" style="text;html=1;strokeColor=none;fillColor=none;align=center;verticalAlign=middle;whiteSpace=wrap;rounded=0;shadow=0;labelBackgroundColor=none;fontFamily=Helvetica;fontSize=14;fontColor=#2F5B7C;fontStyle=1" parent="1" vertex="1">
          <mxGeometry x="660" y="470" width="40" height="20" as="geometry" />
        </mxCell>
        <mxCell id="3S0UK-Aqh8NXqVxm9uiH-21594" value="Radius 3" style="text;html=1;strokeColor=none;fillColor=none;align=center;verticalAlign=middle;whiteSpace=wrap;rounded=0;shadow=0;labelBackgroundColor=none;fontFamily=Helvetica;fontSize=14;fontColor=#2F5B7C;fontStyle=1" vertex="1" parent="1">
          <mxGeometry x="510.00000000000006" y="400" width="70.8" height="20" as="geometry" />
        </mxCell>
        <mxCell id="3S0UK-Aqh8NXqVxm9uiH-21595" value="Radius 4" style="text;html=1;strokeColor=none;fillColor=none;align=center;verticalAlign=middle;whiteSpace=wrap;rounded=0;shadow=0;labelBackgroundColor=none;fontFamily=Helvetica;fontSize=14;fontColor=#2F5B7C;fontStyle=1" vertex="1" parent="1">
          <mxGeometry x="494.6000000000001" y="330" width="70.8" height="20" as="geometry" />
        </mxCell>
      </root>
    </mxGraphModel>
  </diagram>
</mxfile>
